[img]http://img72.imageshack.us/img72/7883/abrahamlincolnvampirehuw.jpg[/img]

[b][size=200][color=black]PLOT[/color][/size][/b]

[code]Abraham Lincoln, the 16th President of the United States,
discovers vampires are planning to take over the United States. 
He makes it his mission to eliminate them.[/code]

[b][size=200][color=black]IMDB[/color][/size][/b]

[code]http://www.imdb.com/title/tt1611224/[/code]

[b][size=200][color=black]MOVIE INFO[/color][/size][/b]

[code]Abraham Lincoln Vampire Hunter [2012] DVDRip x264 AAC-V3nom

Format                                   : MPEG-4
Format profile                           : Base Media / Version 2
Codec ID                                 : mp42
File size                                : 350 MiB
Duration                                 : 1h 40mn
Overall bit rate mode                    : Variable
Overall bit rate                         : 486 Kbps
Encoded date                             : UTC 2012-12-07 17:25:21
Tagged date                              : UTC 2012-12-07 17:58:50

Video
ID                                       : 1
Format                                   : AVC
Format/Info                              : Advanced Video Codec
Format profile                           : Main@L2.1
Format settings, CABAC                   : Yes
Format settings, ReFrames                : 4 frames
Codec ID                                 : avc1
Codec ID/Info                            : Advanced Video Coding
Duration                                 : 1h 40mn
Bit rate mode                            : Variable
Bit rate                                 : 354 Kbps
Width                                    : 640 pixels
Height                                   : 272 pixels
Display aspect ratio                     : 2.35:1
Frame rate mode                          : Constant
Frame rate                               : 25.000 fps
Color space                              : YUV
Chroma subsampling                       : 4:2:0
Bit depth                                : 8 bits
Scan type                                : Progressive
Bits/(Pixel*Frame)                       : 0.081
Stream size                              : 255 MiB (73%)
Writing library                          : x264 core 112

Audio
ID                                       : 2
Format                                   : AAC
Format/Info                              : Advanced Audio Codec
Format profile                           : LC
Codec ID                                 : 40
Duration                                 : 1h 40mn
Bit rate mode                            : Variable
Bit rate                                 : 128 Kbps
Maximum bit rate                         : 147 Kbps
Channel(s)                               : 2 channels
Channel positions                        : Front: L R
Sampling rate                            : 48.0 KHz
Compression mode                         : Lossy
Delay relative to video                  : 80ms
Stream size                              : 92.2 MiB (26%)
Encoded date                             : UTC 2012-12-07 17:25:21
Tagged date                              : UTC 2012-12-07 17:58:46[/code]

[b][size=200][color=black]SOURCE[/color][/size][/b]

[code]Abraham Lincoln Vampire Hunter[2012]DVDRip XviD-ETRG(Thanks)[/code]

[b][size=200][color=black]SCREENSHOTS[/color][/size][/b]

[img]http://img836.imageshack.us/img836/9140/abrahamlincolnvampirehum.jpg[/img]

[img]http://kastatic.com/i2/users/133df62bbf28e62494bb17fe11078f1a.gif[/img][img]http://kastatic.com/i2/users/133df62bbf28e62494bb17fe11078f1a.gif[/img]